<svg xmlns="http://www.w3.org/2000/svg" viewBox="0 0 1339 695.45"><defs><style>.a{fill:#fe6d42;}.b{fill:#fff;}</style></defs><path class="a" d="M1026.39,605.35,934.67,472.88H833.45V605.35H723.4V129.81H929.24c127,0,206.52,65.89,206.52,172.55,0,71.33-36,123.64-97.82,150.14l106.65,152.85ZM923.12,219.48H833.45V385.24h89.67c67.26,0,101.23-31.25,101.23-82.88C1024.35,250.05,990.38,219.48,923.12,219.48Z"/><path class="b" d="M648,605.27,647.27,320,507.33,555H457.74L318.47,326.06V605.27H215.21V129.73h91l178,295.51L659.5,129.73h90.36l1.35,475.54Z"/><path class="b" d="M101.4,586.71c0-58.91,7.52-101.68,7.52-155.76C108.92,399.48,88.63,368.81,0,368V326c88.63-.81,108.92-31.47,108.92-63,0-50.84-7.52-100.07-7.52-155.76C101.4,24.21,146.47,0,240.37,0h46.57V37.93H247.88c-76.62,0-93.14,21-93.14,73.44,0,46,4.5,96,4.5,146.07,0,52.46-16.52,78.29-68.35,88v3.23c51.83,9.68,68.35,35.51,68.35,88,0,54.88-4.5,96.85-4.5,146.08,0,52.46,16.52,73.44,93.14,73.44h39.06v37.93H240.37C146.47,694.05,101.4,669.84,101.4,586.71Z"/><path class="b" d="M1098.63,695.45h-46.57V657.52h39.06c76.62,0,93.15-21,93.15-73.44,0-49.23-4.51-91.2-4.51-146.08,0-52.46,16.52-78.28,68.35-88v-3.22c-51.83-9.69-68.35-35.51-68.35-88,0-50,4.51-100.07,4.51-146.07,0-52.46-16.53-73.44-93.15-73.44h-39.06V1.4h46.57c93.89,0,139,24.21,139,107.33,0,55.69-7.52,104.92-7.52,155.76,0,31.47,20.29,62.14,108.92,62.95v42c-88.63.81-108.92,31.48-108.92,63,0,54.08,7.52,96.85,7.52,155.76C1237.6,671.24,1192.52,695.45,1098.63,695.45Z"/></svg>