<?xml version="1.0" standalone="no"?>
<!DOCTYPE svg PUBLIC "-//W3C//DTD SVG 20010904//EN"
 "http://www.w3.org/TR/2001/REC-SVG-20010904/DTD/svg10.dtd">
<svg version="1.0" xmlns="http://www.w3.org/2000/svg"
 width="1339.000000pt" height="1339.000000pt" viewBox="0 0 1339.000000 1339.000000"
 preserveAspectRatio="xMidYMid meet">
<metadata>
Created by potrace 1.14, written by Peter Selinger 2001-2017
</metadata>
<g transform="translate(0.000000,1339.000000) scale(0.100000,-0.100000)"
fill="#000000" stroke="none">
<path d="M2148 10165 c-2 -1 -41 -5 -88 -9 -47 -4 -96 -8 -110 -11 -14 -2 -43
-7 -65 -10 -22 -3 -49 -7 -60 -9 -11 -2 -38 -7 -60 -11 -22 -4 -55 -13 -73
-21 -18 -7 -36 -13 -40 -11 -10 3 -134 -44 -157 -60 -11 -7 -27 -13 -37 -13
-10 0 -18 -3 -18 -8 0 -4 -20 -18 -45 -31 -25 -13 -45 -28 -45 -32 0 -5 -5 -9
-11 -9 -16 0 -129 -117 -162 -168 -43 -67 -67 -111 -67 -126 0 -8 -4 -16 -8
-18 -5 -1 -21 -46 -35 -98 -44 -161 -50 -214 -49 -495 0 -206 5 -344 17 -510
3 -38 8 -104 10 -145 3 -41 7 -97 10 -125 2 -27 7 -93 10 -145 4 -53 8 -125
11 -160 9 -137 11 -490 3 -496 -5 -3 -7 -9 -4 -14 8 -13 -32 -125 -61 -172
-32 -50 -150 -168 -169 -168 -2 0 -26 -13 -52 -28 -26 -16 -52 -30 -58 -31 -5
-2 -21 -8 -35 -13 -25 -10 -110 -37 -139 -44 -9 -2 -34 -8 -56 -13 -22 -5 -62
-13 -90 -16 -27 -4 -57 -8 -65 -10 -22 -6 -161 -17 -249 -20 -42 -2 -82 -4
-88 -4 -10 -1 -13 -50 -13 -211 l0 -209 68 -1 c163 -1 404 -32 516 -66 245
-75 378 -169 451 -317 45 -93 53 -157 50 -376 -4 -206 -8 -279 -31 -567 -3
-38 -7 -103 -9 -144 -2 -41 -4 -75 -5 -75 -1 0 -3 -25 -5 -55 -1 -30 -6 -109
-10 -175 -10 -153 -10 -556 -2 -615 4 -25 10 -61 13 -80 3 -19 7 -45 9 -57 10
-67 91 -276 113 -293 4 -3 13 -17 20 -31 26 -50 137 -155 217 -206 92 -58 250
-120 354 -138 19 -3 37 -7 40 -9 3 -2 22 -7 41 -10 19 -3 51 -8 72 -11 129
-21 296 -28 643 -29 l320 -1 1 188 c1 103 -2 187 -5 188 -3 0 -148 2 -321 4
-173 2 -326 6 -340 8 -14 3 -50 8 -80 11 -172 21 -330 86 -414 170 -73 73
-126 182 -140 291 -3 17 -7 41 -11 55 -7 29 -8 435 0 595 3 61 7 155 10 210 5
110 15 341 20 480 5 133 5 483 0 535 -36 365 -159 540 -462 659 -29 11 -53 18
-53 15 0 -4 -6 -2 -12 4 -12 10 -44 18 -115 29 -22 3 -33 11 -33 22 0 12 23
22 93 40 180 45 318 120 407 219 60 67 121 190 146 292 17 75 20 92 29 205 6
65 6 358 0 495 -6 158 -17 405 -20 470 -8 157 -17 496 -17 620 0 192 10 274
48 384 13 38 27 72 32 75 5 3 12 15 16 26 18 55 140 150 238 185 35 12 70 25
78 28 26 9 125 28 195 37 52 6 280 18 328 16 20 -1 43 -1 50 -2 6 0 41 0 77 1
36 0 83 0 105 -1 22 0 45 0 50 1 6 2 31 2 56 1 l46 -2 0 191 0 191 -358 -2
c-197 -1 -359 -2 -361 -4z"/>
<path d="M10516 10151 c-2 -3 -3 -88 -3 -188 l-1 -183 37 0 c20 0 160 -2 311
-4 286 -5 359 -9 455 -29 11 -2 38 -8 60 -12 51 -11 44 -9 90 -24 127 -43 240
-132 289 -228 32 -64 64 -178 72 -258 10 -108 6 -436 -11 -805 -2 -47 -7 -157
-11 -245 -10 -216 -11 -757 -2 -822 35 -241 116 -388 273 -500 75 -54 219
-112 328 -133 73 -15 92 -45 36 -55 -193 -36 -378 -129 -473 -237 -50 -57 -95
-137 -121 -213 -20 -59 -24 -79 -45 -200 -8 -47 -5 -654 4 -835 29 -558 36
-881 22 -1020 -22 -224 -112 -376 -268 -453 -73 -36 -186 -71 -265 -82 -23 -3
-57 -8 -75 -11 -18 -4 -179 -8 -358 -11 -179 -2 -330 -6 -336 -8 -9 -2 -12
-58 -11 -190 l0 -187 391 5 c462 7 498 10 747 62 112 23 307 107 379 163 96
75 191 192 238 294 29 63 71 209 78 272 3 28 9 76 13 107 12 96 4 530 -15 762
-2 29 -6 86 -9 127 -2 41 -7 107 -10 145 -4 39 -8 99 -10 135 -2 36 -7 106
-10 155 -12 176 -14 451 -4 505 11 63 50 170 61 170 5 0 8 7 8 15 0 9 32 47
70 85 57 57 90 80 174 120 57 28 110 50 118 50 8 0 18 3 22 7 3 4 13 8 20 9 8
1 45 9 82 17 64 15 97 21 164 32 44 7 172 17 260 20 47 2 88 4 93 4 4 1 7 96
7 211 l0 210 -82 1 c-171 2 -415 34 -508 67 -8 3 -23 7 -33 9 -40 7 -169 67
-224 102 -128 83 -198 184 -228 328 -14 67 -14 310 0 528 3 50 8 119 10 155 2
36 7 97 10 135 3 39 7 99 10 135 2 36 7 108 11 160 4 52 7 134 8 182 1 49 3
88 6 88 6 0 3 447 -3 505 -34 300 -154 519 -359 652 -100 65 -257 129 -358
147 -14 3 -25 5 -25 6 0 2 -13 4 -73 14 -18 2 -45 7 -60 10 -15 3 -56 8 -91
12 -35 3 -82 8 -105 10 -64 8 -766 12 -770 5z"/>
<path d="M2160 8872 c-7 -3 -10 -804 -10 -2377 l0 -2373 515 -1 c484 -1 515 0
516 17 0 9 1 635 1 1390 0 1161 3 1371 14 1361 8 -6 14 -16 14 -21 0 -6 10
-24 23 -41 12 -18 27 -41 33 -52 6 -11 62 -103 124 -205 62 -102 125 -205 139
-230 13 -25 27 -47 30 -50 3 -3 14 -18 23 -35 10 -16 53 -87 95 -158 43 -70
87 -142 98 -161 11 -18 61 -99 110 -180 50 -80 95 -154 100 -164 6 -9 37 -61
70 -115 33 -54 65 -106 70 -115 6 -10 21 -35 35 -57 14 -22 32 -52 40 -66 31
-52 112 -186 150 -248 22 -34 40 -67 40 -72 0 -5 4 -9 9 -9 5 0 11 -6 13 -12
2 -7 38 -72 82 -144 l79 -130 247 0 c137 1 250 3 253 6 4 5 239 399 277 465
68 117 131 222 140 232 5 7 10 14 10 17 0 2 36 64 80 137 44 73 80 134 80 136
0 2 12 22 28 46 15 23 29 47 32 52 8 17 122 208 145 245 13 19 58 95 101 168
44 73 88 148 99 166 11 19 53 89 93 157 81 137 83 140 132 218 19 31 35 58 35
61 1 8 136 230 140 230 2 0 4 -278 4 -617 1 -340 3 -978 4 -1418 l2 -800 926
-3 927 -2 0 457 c0 252 1 550 1 663 l1 205 504 0 c278 -1 507 -3 509 -5 2 -3
33 -48 68 -100 35 -52 67 -97 70 -100 6 -6 169 -243 184 -268 6 -9 12 -19 15
-22 14 -13 170 -242 170 -250 0 -4 3 -10 8 -12 11 -4 82 -106 82 -117 0 -5 4
-11 8 -13 5 -1 39 -48 77 -103 38 -55 73 -101 77 -103 4 -2 8 -9 8 -15 0 -7
18 -36 40 -65 22 -29 40 -57 40 -62 0 -6 3 -10 8 -10 4 0 18 -18 32 -40 l25
-40 587 0 c385 0 588 3 588 10 0 6 -8 18 -17 28 -10 10 -24 29 -31 43 -8 14
-26 41 -42 59 -16 18 -34 45 -42 59 -7 14 -18 31 -23 37 -6 6 -28 37 -50 70
-22 32 -43 61 -47 62 -5 2 -8 10 -8 17 0 7 -4 15 -8 17 -4 2 -37 46 -72 98
-36 52 -67 97 -70 100 -3 3 -35 48 -71 100 -36 52 -86 124 -110 158 -24 35
-48 71 -54 80 -5 10 -14 20 -18 23 -5 4 -14 16 -20 27 -7 12 -46 69 -87 127
-41 58 -79 114 -85 123 -15 23 -22 33 -50 68 -14 18 -25 37 -25 42 0 6 -6 15
-12 19 -7 4 -17 15 -23 25 -5 9 -29 44 -53 77 -23 34 -40 62 -37 62 3 1 8 2
13 3 16 5 120 58 167 86 28 17 58 33 68 36 9 4 17 10 17 15 0 5 5 9 11 9 9 0
63 37 95 65 7 6 25 19 40 30 16 11 68 59 116 106 121 122 219 258 282 394 15
33 35 74 43 90 22 44 74 225 88 304 3 19 7 37 9 40 10 16 20 174 21 316 0 173
-6 249 -30 365 -25 120 -25 123 -41 170 -9 25 -17 53 -19 63 -7 34 -89 213
-117 254 -15 23 -28 44 -28 48 0 25 -127 183 -227 282 -66 64 -252 213 -267
213 -4 0 -25 12 -49 27 -181 115 -539 238 -776 268 -23 3 -55 7 -70 9 -160 26
-295 28 -1728 30 l-1401 1 -69 -113 c-37 -63 -77 -130 -89 -150 -11 -20 -29
-51 -40 -69 -10 -17 -43 -74 -73 -125 -30 -51 -58 -94 -63 -96 -4 -2 -8 -9 -8
-15 0 -7 -18 -40 -40 -75 -22 -34 -40 -65 -40 -67 0 -3 -16 -29 -35 -59 -19
-30 -35 -60 -35 -66 0 -5 -4 -10 -9 -10 -5 0 -13 -10 -17 -22 -3 -13 -12 -30
-19 -38 -7 -8 -24 -35 -37 -60 -41 -73 -137 -234 -146 -245 -7 -9 -19 -29 -90
-155 -14 -25 -30 -48 -36 -52 -6 -4 -7 -8 -2 -8 5 0 2 -8 -6 -17 -9 -10 -27
-38 -40 -63 -47 -85 -72 -125 -80 -128 -4 -2 -8 -8 -8 -12 0 -5 -40 -77 -90
-160 -49 -82 -96 -162 -105 -177 -9 -16 -27 -46 -40 -68 -14 -22 -30 -49 -35
-60 -6 -11 -18 -32 -28 -47 -9 -15 -38 -62 -63 -105 -42 -73 -148 -251 -194
-328 -11 -18 -63 -106 -115 -194 -52 -89 -98 -161 -102 -161 -4 0 -17 17 -28
38 -20 36 -90 152 -110 182 -6 8 -13 23 -16 33 -4 9 -10 17 -15 17 -5 0 -9 5
-9 11 0 6 -13 30 -28 53 -15 22 -31 48 -35 56 -4 8 -19 33 -32 55 -14 22 -28
48 -32 58 -3 9 -8 17 -12 17 -4 0 -18 22 -32 50 -13 27 -27 50 -31 50 -5 0 -8
6 -8 14 0 8 -3 16 -7 18 -5 2 -17 20 -28 40 -41 76 -410 683 -417 686 -5 2 -8
8 -8 14 0 11 -175 303 -198 331 -8 9 -11 17 -6 17 5 0 5 4 -1 8 -12 8 -30 36
-47 72 -7 14 -15 27 -18 30 -14 13 -40 60 -33 60 5 0 3 4 -3 8 -10 6 -113 172
-234 377 -9 17 -50 84 -90 150 -40 66 -80 134 -90 150 -9 17 -54 90 -99 164
-44 73 -81 137 -81 142 0 5 -4 9 -10 9 -5 0 -10 7 -10 15 0 8 -3 15 -7 16 -22
3 -895 3 -903 1z m7283 -906 c27 -3 58 -8 70 -10 12 -3 45 -9 73 -15 104 -20
236 -74 333 -135 50 -32 134 -113 173 -166 34 -46 90 -150 82 -150 -4 0 -2 -6
3 -12 6 -7 14 -26 18 -43 5 -16 10 -37 12 -45 33 -126 35 -381 3 -466 -5 -13
-7 -24 -5 -24 8 0 -36 -111 -63 -160 -115 -210 -327 -346 -617 -395 -11 -2
-36 -7 -55 -11 -19 -4 -284 -9 -587 -11 l-553 -5 -1 36 c0 20 0 308 0 641 0
333 0 690 0 793 l1 189 533 -3 c292 -2 554 -5 580 -8z"/>
</g>
</svg>
